<svg xmlns="http://www.w3.org/2000/svg" width="161" height="28" viewBox="0 0 161 28" fill="none"><path d="M44.1299 18.7572C44.1299 16.9673 44.4856 15.3985 45.197 14.0508C45.9294 12.682 46.9337 11.6292 48.2101 10.8921C49.4865 10.1551 50.9512 9.7866 52.6042 9.7866C54.6966 9.7866 56.4229 10.292 57.783 11.3028C59.0006 12.1754 59.8685 13.3836 60.3866 14.9273C60.494 15.2472 60.2486 15.567 59.9131 15.567H57.2528C56.9303 15.567 56.648 15.361 56.5043 15.0704C56.193 14.441 55.7613 13.9326 55.2093 13.5454C54.5188 13.0611 53.6504 12.8189 52.6042 12.8189C51.1395 12.8189 49.9678 13.3454 49.0889 14.3983C48.231 15.4301 47.8021 16.8831 47.8021 18.7572C47.8021 20.6314 48.231 22.0949 49.0889 23.1478C49.9678 24.2007 51.1395 24.7271 52.6042 24.7271C54.4793 24.7271 55.78 23.9766 56.5065 22.4755C56.6475 22.1841 56.9298 21.9791 57.2519 21.9791H59.8973C60.2376 21.9791 60.4836 22.3073 60.3663 22.6288C59.8307 24.0968 58.9591 25.2911 57.7516 26.2117C56.3706 27.2435 54.6548 27.7594 52.6042 27.7594C50.9512 27.7594 49.4865 27.3909 48.2101 26.6539C46.9337 25.8958 45.9294 24.8429 45.197 23.4952C44.4856 22.1265 44.1299 20.5471 44.1299 18.7572Z" fill="#1A1A1A"></path><path d="M78.3303 10.0709C78.7546 10.0709 79.0986 10.4171 79.0986 10.8441V26.7019C79.0986 27.129 78.7546 27.4751 78.3303 27.4751H76.2888C75.8645 27.4751 75.5205 27.129 75.5205 26.7019V25.7915C75.5205 25.6695 75.3643 25.6131 75.2826 25.7033C74.7523 26.2885 74.0888 26.7633 73.2921 27.1277C72.3924 27.5278 71.4298 27.7278 70.4046 27.7278C69.0445 27.7278 67.8204 27.4436 66.7324 26.875C65.6652 26.3064 64.8178 25.4641 64.1901 24.3481C63.5832 23.232 63.2798 21.8843 63.2798 20.305V10.8441C63.2798 10.4171 63.6238 10.0709 64.0481 10.0709H66.0582C66.4825 10.0709 66.8265 10.4171 66.8265 10.8441V19.768C66.8265 21.3263 67.2136 22.5266 67.9878 23.3689C68.762 24.1901 69.8187 24.6008 71.1578 24.6008C72.497 24.6008 73.5537 24.1901 74.3279 23.3689C75.123 22.5266 75.5205 21.3263 75.5205 19.768V10.8441C75.5205 10.4171 75.8645 10.0709 76.2888 10.0709H78.3303Z" fill="#1A1A1A"></path><path d="M86.179 12.5978C86.7021 11.7134 87.3926 11.029 88.2505 10.5447C88.9353 10.1509 89.7153 9.91052 90.5907 9.82357C91.0129 9.78162 91.3578 10.1328 91.3578 10.5598V12.7406C91.3578 13.1677 91.0138 13.5138 90.5895 13.5138H90.4476C89.0457 13.5138 87.9785 13.8718 87.2462 14.5878C86.5348 15.3037 86.179 16.5461 86.179 18.315V26.7019C86.179 27.129 85.8351 27.4751 85.4107 27.4751H83.3693C82.945 27.4751 82.601 27.129 82.601 26.7019V10.8441C82.601 10.4171 82.945 10.0709 83.3693 10.0709H85.4107C85.8351 10.0709 86.179 10.4171 86.179 10.8441V12.5978Z" fill="#1A1A1A"></path><path d="M109.792 18.3466C109.792 18.7412 109.776 19.1127 109.746 19.4612C109.712 19.8396 109.388 20.1154 109.011 20.1154H97.0048C96.7066 20.1154 96.4691 20.3715 96.5176 20.6675C96.704 21.8039 97.1948 22.7359 97.9902 23.4636C98.9109 24.3059 100.041 24.7271 101.38 24.7271C103.13 24.7271 104.414 24.0567 105.23 22.716C105.383 22.465 105.645 22.2949 105.938 22.2949H108.613C108.962 22.2949 109.208 22.6385 109.071 22.9612C108.518 24.2643 107.649 25.3583 106.465 26.2433C105.104 27.254 103.41 27.7594 101.38 27.7594C99.7269 27.7594 98.2413 27.3909 96.9231 26.6539C95.6258 25.8958 94.6005 24.8429 93.8472 23.4952C93.1149 22.1265 92.7487 20.5471 92.7487 18.7572C92.7487 16.9673 93.1044 15.3985 93.8158 14.0508C94.5482 12.682 95.563 11.6292 96.8603 10.8921C98.1785 10.1551 99.6851 9.7866 101.38 9.7866C103.012 9.7866 104.466 10.1446 105.743 10.8605C107.019 11.5765 108.013 12.5873 108.724 13.8929C109.436 15.1774 109.792 16.662 109.792 18.3466ZM105.536 17.2095C105.822 17.2095 106.056 16.9729 106.023 16.6869C105.9 15.6007 105.441 14.7115 104.644 14.0192C103.723 13.219 102.583 12.8189 101.223 12.8189C99.9885 12.8189 98.9318 13.219 98.053 14.0192C97.3033 14.6839 96.8125 15.5554 96.5805 16.6338C96.5153 16.9368 96.7558 17.2095 97.0639 17.2095H105.536Z" fill="#1A1A1A"></path><path d="M115.16 0C115.585 0 115.929 0.346171 115.929 0.773196V26.7019C115.929 27.129 115.585 27.4751 115.16 27.4751H113.119C112.695 27.4751 112.351 27.129 112.351 26.7019V0.773196C112.351 0.346172 112.695 0 113.119 0H115.16Z" fill="#1A1A1A"></path><path d="M121.485 7.76506C120.836 7.76506 120.292 7.54395 119.853 7.10174C119.413 6.65952 119.194 6.11202 119.194 5.45923C119.194 4.80644 119.413 4.25894 119.853 3.81672C120.292 3.37451 120.836 3.1534 121.485 3.1534C122.113 3.1534 122.646 3.37451 123.086 3.81672C123.525 4.25894 123.745 4.80644 123.745 5.45923C123.745 6.11202 123.525 6.65952 123.086 7.10174C122.646 7.54395 122.113 7.76506 121.485 7.76506ZM122.474 10.0709C122.899 10.0709 123.242 10.4171 123.242 10.8441V26.7019C123.242 27.129 122.899 27.4751 122.474 27.4751H120.433C120.008 27.4751 119.664 27.129 119.664 26.7019V10.8441C119.664 10.4171 120.008 10.0709 120.433 10.0709H122.474Z" fill="#1A1A1A"></path><path d="M135.704 9.7866C137.064 9.7866 138.277 10.0709 139.344 10.6394C140.433 11.208 141.28 12.0503 141.887 13.1664C142.494 14.2824 142.797 15.6301 142.797 17.2095V26.7019C142.797 27.129 142.453 27.4751 142.029 27.4751H140.019C139.594 27.4751 139.25 27.129 139.25 26.7019V17.7464C139.25 16.1882 138.863 14.9984 138.089 14.1772C137.315 13.3348 136.258 12.9137 134.919 12.9137C133.58 12.9137 132.513 13.3348 131.718 14.1772C130.943 14.9984 130.556 16.1882 130.556 17.7464V26.7019C130.556 27.129 130.212 27.4751 129.788 27.4751H127.746C127.322 27.4751 126.978 27.129 126.978 26.7019V10.8441C126.978 10.4171 127.322 10.0709 127.746 10.0709H129.788C130.212 10.0709 130.556 10.4171 130.556 10.8441V11.3425C130.556 11.5843 130.869 11.7022 131.043 11.5362C131.538 11.0663 132.118 10.6832 132.785 10.3868C133.705 9.98665 134.678 9.7866 135.704 9.7866Z" fill="#1A1A1A"></path><path d="M153.401 18.614C153.311 18.7127 153.311 18.8647 153.401 18.9634L160.499 26.6965C160.771 26.9936 160.562 27.4751 160.16 27.4751H156.732C156.509 27.4751 156.296 27.377 156.15 27.2064L150.427 20.5155C150.272 20.3343 149.977 20.4446 149.977 20.6836V26.7019C149.977 27.129 149.633 27.4751 149.209 27.4751H147.167C146.743 27.4751 146.399 27.129 146.399 26.7019V0.773196C146.399 0.346172 146.743 0 147.167 0H149.209C149.633 0 149.977 0.346171 149.977 0.773196V16.9691C149.977 17.2104 150.277 17.3194 150.43 17.1337L156.024 10.3503C156.17 10.1733 156.387 10.0709 156.615 10.0709H160.163C160.564 10.0709 160.774 10.5516 160.502 10.849L153.401 18.614Z" fill="#1A1A1A"></path><path d="M1.09931 15.6584C0.413165 15.6584 -0.124766 16.3328 0.0252983 17.0861C1.21512 23.0586 5.95619 27.5214 11.6237 27.5214H15.6339C16.172 27.5214 16.6082 27.0307 16.6082 26.4253V16.9526C16.6082 16.2379 16.0932 15.6584 15.4579 15.6584H1.09931Z" fill="#51CBFF"></path><path d="M1.09931 12.3379C0.413165 12.3379 -0.124766 11.6635 0.0252983 10.9103C1.21512 4.93771 5.95619 0.47489 11.6237 0.47489H15.6339C16.172 0.47489 16.6082 0.965656 16.6082 1.57105V11.0437C16.6082 11.7585 16.0932 12.3379 15.4579 12.3379H1.09931Z" fill="#51CBFF"></path><rect x="19.9292" y="0.473877" width="10.6767" height="11.863" rx="1.06767" fill="#007EFA"></rect><rect x="19.9292" y="27.5225" width="11.863" height="16.6082" rx="1.06767" transform="rotate(-90 19.9292 27.5225)" fill="#007EFA"></rect></svg>